<svg id="Layer_1" xmlns="http://www.w3.org/2000/svg" viewBox="0 0 1600 470"><style>.st1{fill:#07f}</style><path fill="#e3e3e3" d="M0 0h1600v394H0z" id="_Group_"/><path class="st1" d="M590 342.3c-5 0-9-4-9-9v-16c0-5 4-9 9-9 1 0 1.9.2 2.8.5.5.2.8.7.6 1.3-.2.5-.7.8-1.3.6-3.7-1.2-7.6.8-8.8 4.5-.2.7-.4 1.4-.4 2.2v16c0 3.9 3.1 7 7 7 .5 0 .9 0 1.4-.1.6-.1 1.1.2 1.2.8s-.2 1.1-.8 1.2H590z"/><path class="st1" d="M684 371h-53.2c-23 0-41.8-18.3-41.8-40.9v-7.9c0-22.4 19.1-41.2 41.8-41.2H684c.6 0 1 .4 1 1v88c0 .6-.4 1-1 1zm-53.2-88c-21.5 0-39.8 18-39.8 39.2v7.9c0 21.4 17.8 38.9 39.8 38.9H683v-86h-52.2z"/><path class="st1" d="M684 377.5c-.6 0-1-.4-1-1v-102c0-.6.4-1 1-1h.3l27 8c.4.1.7.5.7 1v89c0 .5-.3.9-.8 1l-27 5h-.2zm1-101.7v99.5l25-4.6v-87.4l-25-7.5z"/><path class="st1" d="M700 313h-3c-.6 0-1-.4-1-1v-18c0-.6.4-1 1-1h3c.6 0 1 .4 1 1v18c0 .6-.4 1-1 1zm-2-2h1v-16h-1v16zm2 47h-3c-.6 0-1-.4-1-1v-18c0-.6.4-1 1-1h3c.6 0 1 .4 1 1v18c0 .6-.4 1-1 1zm-2-2h1v-16h-1v16zm-240.5 98.3c-11.4 0-20.4-3.5-26.8-10.2-9.4-10-9.3-23.4-9.2-26V275.3c-.2-.1-.4-.4-.4-.6-.4-2.4-1.2-4.6-2.3-6.8-3.1-6-8.6-8.9-16.8-8.9-6.1 0-10.6 1.6-13.9 4.9-5.5 5.6-5.6 14.5-5.6 14.6V322c.1 3.7-1.2 7.3-3.7 10.1-2 2.1-5.6 4.7-12 4.7h-72.3c-5 0-9 4-9 9v22.5c0 13-10.1 23.5-22.5 23.5H0c-.6 0-1-.4-1-1v-12c0-.6.4-1 1-1h263c5.2 0 8.5-4.9 8.5-9.5v-22.5c0-12.7 10.3-23 23-23h74v-44.2c0-1.5.2-15 9.6-24.5 4.1-4.1 11.5-9 23.9-9s19.8 4.9 23.9 9c9.5 9.6 9.6 23 9.6 24.5v139.8l-.1 1.6c.1.1.1.3.1.4.2 3.3 1.2 9.6 5.5 14.1 3.6 3.8 9.2 5.7 16.5 5.7s13-2 16.6-5.8c5.6-6 5.5-14.8 5.4-15.8v-76.8c0-12.7 10.3-23 23-23H582c.6 0 1 .4 1 1v12c0 .6-.4 1-1 1h-79.5c-5 0-9 4-9 9V418c.1 2.6.2 16-9.2 26-6.4 6.9-15.4 10.3-26.8 10.3zm-34.6-180.8c.4.2.6.5.6.9v143.7c-.1 2.5-.2 15.1 8.7 24.5 6 6.4 14.5 9.6 25.4 9.6s19.4-3.2 25.4-9.6c8.8-9.4 8.8-22.1 8.7-24.5v-76.3c0-6.1 4.9-11 11-11H581v-10h-78.5c-11.6 0-21 9.4-21 21v76.9c0 1.3.1 10.7-6 17.1-4 4.3-10.1 6.5-18.1 6.5s-13.9-2.1-17.9-6.3c-4.6-4.8-5.8-11.4-6-15-.1-.2-.2-.4-.2-.6l.1-2V278.6c0-1.4-.2-14.1-9.1-23.1-3.8-3.9-10.8-8.5-22.4-8.5s-18.6 4.6-22.4 8.4c-8.9 9-9.1 21.7-9.1 23.1v45.2c0 .6-.4 1-1 1h-75c-11.6 0-21 9.4-21 21v22.5c0 5.5-4 11.5-10.5 11.5H1v10h262c11.3 0 20.5-9.6 20.5-21.5v-22.5c0-6.1 4.9-11 11-11h72.3c5.6 0 8.8-2.2 10.5-4 2.1-2.4 3.2-5.4 3.1-8.6v-43.7c0-.1 0-9.7 6.2-16 3.6-3.7 8.6-5.5 15.3-5.5 8.9 0 15 3.2 18.5 9.9 1.2 2.2 2 4.4 2.5 6.7zm590.1 68.8c-1.2 0-2.5-.3-3.6-.8-.5-.2-.7-.8-.5-1.3.2-.5.8-.7 1.3-.5.9.4 1.8.6 2.8.6 3.9 0 7-3.1 7-7v-16c0-3.9-3.1-7-7-7-.9 0-1.9.2-2.7.5-.5.2-1.1 0-1.3-.5-.2-.5 0-1.1.5-1.3h.1c1.1-.5 2.3-.7 3.5-.7 5 0 9 4 9 9v16c-.1 5-4.1 9-9.1 9zM890 340c-.6 0-1-.4-1-1v-26c0-.6.4-1 1-1s1 .4 1 1v26c0 .6-.4 1-1 1z"/><path class="st1" d="M971.2 371H917c-.6 0-1-.4-1-1v-88c0-.6.4-1 1-1h54.2c22.8 0 40.8 17.6 40.8 40.1v7.9c0 23.2-18.3 42-40.8 42zm-53.2-2h53.2c21.4 0 38.8-17.9 38.8-40v-7.9c0-21.4-17-38.1-38.8-38.1H918v86z"/><path class="st1" d="M953 360h-10c-.6 0-1-.4-1-1v-64c0-.6.4-1 1-1h10c.6 0 1 .4 1 1v64c0 .6-.4 1-1 1zm-9-2h8v-62h-8v62zm-27 19.5h-.2l-27-5c-.5-.1-.8-.5-.8-1V358c0-.6.4-1 1-1s1 .4 1 1v12.7l25 4.6v-99.5l-25 7.4v9.8c0 .6-.4 1-1 1s-1-.4-1-1v-10.5c0-.5.3-.9.7-1l27-8c.5-.2 1.1.1 1.2.7v102.3c.1.6-.3 1-.9 1z"/><path class="st1" d="M904 313h-43c-.6 0-1-.4-1-1v-18c0-.6.4-1 1-1h43c.6 0 1 .4 1 1v18c0 .6-.4 1-1 1zm-42-2h41v-16h-41v16zm42 47h-43c-.6 0-1-.4-1-1v-18c0-.6.4-1 1-1h43c.6 0 1 .4 1 1v18c0 .6-.4 1-1 1zm-42-2h41v-16h-41v16zm389 103c-12.3 0-19.8-4.9-23.9-9-9.5-9.6-9.7-23-9.6-24.5v-48.3H1201l-69.5.3c-12.7 0-23-10.3-23-23v-18.8c0-4.6-3.2-9.5-8.5-9.5h-79c-.6 0-1-.4-1-1v-12c0-.6.4-1 1-1h79c12.4 0 22.5 10.5 22.5 23.5v18.8c0 5 4 9 9 9l69.5-.3h14.8c6.3 0 10 2.5 12 4.7 2.5 2.7 3.8 6.3 3.7 10v47.6c0 .1.1 9 5.6 14.6 3.2 3.3 7.8 4.9 13.9 4.9 8.1 0 13.6-2.9 16.8-8.9 1.1-2.1 1.9-4.4 2.3-6.8 0-.3.2-.5.4-.6V297.9c-.1-2.6-.2-16 9.2-26 6.4-6.8 15.4-10.2 26.8-10.2s20.4 3.5 26.8 10.2c9.4 10 9.3 23.4 9.2 26v16.8l-.5 43.3v13.5c0 5 4 9 9 9h249c.6 0 1 .4 1 1v12c0 .6-.4 1-1 1h-249c-12.7 0-23-10.3-23-23V358l.5-43.3v-17.4c0-.4.4-9.7-5.4-15.8-3.6-3.9-9.2-5.8-16.6-5.8s-12.9 1.9-16.5 5.7c-4.3 4.5-5.3 10.8-5.5 14.1 0 .1 0 .3-.1.4l.1 1.6v127.9c0 1.5-.2 15-9.6 24.5-4.1 4.2-11.6 9.1-23.9 9.1zm-50-83.8h17.5c.6 0 1 .4 1 1v49.2c0 1.4.2 14.1 9.1 23.1 3.8 3.9 10.8 8.5 22.4 8.5s18.6-4.6 22.4-8.5c8.9-9 9.1-21.7 9.1-23.1V297.6l-.1-1.9c0-.2 0-.4.2-.6.2-3.7 1.4-10.2 6-15.1 4-4.2 10.1-6.3 17.9-6.3s14 2.2 18.1 6.5c6 6.4 6 15.4 6 17.1v17.5l-.6 43.2v13.5c0 11.6 9.4 21 21 21h248v-10h-248c-6.1 0-11-4.9-11-11V358l.5-43.3v-16.9c.1-2.5.2-15.1-8.7-24.5-6-6.4-14.5-9.6-25.3-9.6s-19.4 3.2-25.3 9.6c-8.8 9.4-8.8 22.1-8.7 24.5v131.8c0 .3-.1.5-.3.7-.1.1-.2.2-.3.2-.5 2.3-1.3 4.5-2.3 6.6-3.5 6.7-9.6 9.9-18.5 9.9-6.7 0-11.7-1.8-15.3-5.5-6.1-6.2-6.2-15.9-6.2-16v-47.6c.1-3.2-1-6.3-3.2-8.6-1.7-1.8-4.9-4-10.5-4H1201l-69.5.3c-6.1 0-11-4.9-11-11v-18.8c0-11.9-9.2-21.5-20.5-21.5h-78v10h78c6.5 0 10.5 6 10.5 11.5v18.8c0 11.6 9.4 21 21 21l69.5-.4zM734.7 82.6V155h13.8v18.9h-13.8v23.5h-23.1v-23.5h-50v-19.8c4.4-5 9-10.4 13.8-16.3 4.7-5.9 9.3-12 13.8-18.2s8.6-12.5 12.4-18.9c3.6-5.9 6.8-11.9 9.7-18.1h23.4zM684.3 155h27.4v-40.1c-1.9 3.5-3.9 7-6.1 10.5-2.2 3.5-4.5 7-6.9 10.5-2.4 3.4-4.8 6.8-7.3 10s-4.8 6.3-7.1 9.1zm115.1 44.5c-27.3 0-41-19.2-41-57.6 0-19.9 3.7-35.1 11.1-45.5 7.4-10.4 18.1-15.7 32.1-15.7 26.7 0 40 19.5 40 58.5 0 19.4-3.6 34.3-10.9 44.7-7.3 10.4-17.8 15.6-31.3 15.6zm1.1-99.5c-10.9 0-16.4 13.7-16.4 41.2 0 25.9 5.4 38.8 16.1 38.8 10.5 0 15.7-13.3 15.7-40 0-26.6-5.2-39.9-15.4-40zm122.9-17.4V155h13.8v18.9h-13.8v23.5h-23.1v-23.5h-50v-19.8c4.4-5 9-10.4 13.8-16.3 4.7-5.9 9.3-12 13.8-18.2s8.6-12.5 12.4-18.9c3.6-5.9 6.8-11.9 9.7-18.1h23.4zM873 155h27.4v-40.1c-1.9 3.5-3.9 7-6.1 10.5s-4.5 7-6.9 10.5c-2.4 3.4-4.8 6.8-7.3 10s-4.8 6.3-7.1 9.1z"/></svg>